<mxfile host="app.diagrams.net" agent="Mozilla/5.0 (Windows NT 10.0; Win64; x64) AppleWebKit/537.36 (KHTML, like Gecko) Chrome/131.0.0.0 Safari/537.36" version="25.0.3">
  <diagram name="Page-1" id="_D2OGRQjNa_wrAwCb4fB">
    <mxGraphModel dx="4133" dy="2738" grid="1" gridSize="10" guides="1" tooltips="1" connect="1" arrows="1" fold="1" page="1" pageScale="1" pageWidth="827" pageHeight="1169" math="0" shadow="0">
      <root>
        <mxCell id="0" />
        <mxCell id="1" parent="0" />
        <mxCell id="eqELyGwQ0gQcfWrksQhf-25" style="edgeStyle=orthogonalEdgeStyle;rounded=0;orthogonalLoop=1;jettySize=auto;html=1;exitX=0.5;exitY=1;exitDx=0;exitDy=0;entryX=0;entryY=0.5;entryDx=0;entryDy=0;" edge="1" parent="1" source="eqELyGwQ0gQcfWrksQhf-1" target="eqELyGwQ0gQcfWrksQhf-3">
          <mxGeometry relative="1" as="geometry">
            <mxPoint x="-210" y="500" as="targetPoint" />
          </mxGeometry>
        </mxCell>
        <mxCell id="eqELyGwQ0gQcfWrksQhf-1" value="" style="image;html=1;image=img/lib/clip_art/networking/Router_Icon_128x128.png" vertex="1" parent="1">
          <mxGeometry x="-250" y="220" width="80" height="80" as="geometry" />
        </mxCell>
        <mxCell id="eqELyGwQ0gQcfWrksQhf-22" style="edgeStyle=orthogonalEdgeStyle;rounded=0;orthogonalLoop=1;jettySize=auto;html=1;" edge="1" parent="1" source="eqELyGwQ0gQcfWrksQhf-2" target="eqELyGwQ0gQcfWrksQhf-5">
          <mxGeometry relative="1" as="geometry" />
        </mxCell>
        <mxCell id="eqELyGwQ0gQcfWrksQhf-2" value="" style="image;html=1;image=img/lib/clip_art/networking/Router_Icon_128x128.png" vertex="1" parent="1">
          <mxGeometry x="280" y="230" width="80" height="80" as="geometry" />
        </mxCell>
        <mxCell id="eqELyGwQ0gQcfWrksQhf-30" style="edgeStyle=orthogonalEdgeStyle;rounded=0;orthogonalLoop=1;jettySize=auto;html=1;" edge="1" parent="1" source="eqELyGwQ0gQcfWrksQhf-3" target="eqELyGwQ0gQcfWrksQhf-2">
          <mxGeometry relative="1" as="geometry">
            <mxPoint x="320" y="500" as="targetPoint" />
          </mxGeometry>
        </mxCell>
        <mxCell id="eqELyGwQ0gQcfWrksQhf-3" value="" style="image;html=1;image=img/lib/clip_art/networking/Router_Icon_128x128.png" vertex="1" parent="1">
          <mxGeometry x="-22.8" y="460" width="80" height="80" as="geometry" />
        </mxCell>
        <mxCell id="eqELyGwQ0gQcfWrksQhf-4" value="" style="fontColor=#0066CC;verticalAlign=top;verticalLabelPosition=bottom;labelPosition=center;align=center;html=1;outlineConnect=0;fillColor=#CCCCCC;strokeColor=#6881B3;gradientColor=none;gradientDirection=north;strokeWidth=2;shape=mxgraph.networks.pc;" vertex="1" parent="1">
          <mxGeometry x="-260" y="-150" width="100" height="70" as="geometry" />
        </mxCell>
        <mxCell id="eqELyGwQ0gQcfWrksQhf-5" value="" style="fontColor=#0066CC;verticalAlign=top;verticalLabelPosition=bottom;labelPosition=center;align=center;html=1;outlineConnect=0;fillColor=#CCCCCC;strokeColor=#6881B3;gradientColor=none;gradientDirection=north;strokeWidth=2;shape=mxgraph.networks.pc;" vertex="1" parent="1">
          <mxGeometry x="270" y="-150" width="100" height="70" as="geometry" />
        </mxCell>
        <mxCell id="eqELyGwQ0gQcfWrksQhf-10" value="" style="edgeStyle=orthogonalEdgeStyle;rounded=0;orthogonalLoop=1;jettySize=auto;html=1;entryX=0.267;entryY=1.104;entryDx=0;entryDy=0;entryPerimeter=0;" edge="1" parent="1" source="eqELyGwQ0gQcfWrksQhf-6" target="eqELyGwQ0gQcfWrksQhf-8">
          <mxGeometry relative="1" as="geometry">
            <mxPoint y="915" as="targetPoint" />
          </mxGeometry>
        </mxCell>
        <mxCell id="eqELyGwQ0gQcfWrksQhf-6" value="" style="fontColor=#0066CC;verticalAlign=top;verticalLabelPosition=bottom;labelPosition=center;align=center;html=1;outlineConnect=0;fillColor=#CCCCCC;strokeColor=#6881B3;gradientColor=none;gradientDirection=north;strokeWidth=2;shape=mxgraph.networks.pc;" vertex="1" parent="1">
          <mxGeometry x="-270" y="880" width="100" height="70" as="geometry" />
        </mxCell>
        <mxCell id="eqELyGwQ0gQcfWrksQhf-20" style="edgeStyle=orthogonalEdgeStyle;rounded=0;orthogonalLoop=1;jettySize=auto;html=1;entryX=0.401;entryY=1.048;entryDx=0;entryDy=0;entryPerimeter=0;" edge="1" parent="1" target="eqELyGwQ0gQcfWrksQhf-8">
          <mxGeometry relative="1" as="geometry">
            <mxPoint x="10" y="915" as="targetPoint" />
            <mxPoint x="250" y="915" as="sourcePoint" />
          </mxGeometry>
        </mxCell>
        <mxCell id="eqELyGwQ0gQcfWrksQhf-7" value="" style="fontColor=#0066CC;verticalAlign=top;verticalLabelPosition=bottom;labelPosition=center;align=center;html=1;outlineConnect=0;fillColor=#CCCCCC;strokeColor=#6881B3;gradientColor=none;gradientDirection=north;strokeWidth=2;shape=mxgraph.networks.pc;" vertex="1" parent="1">
          <mxGeometry x="160" y="880" width="100" height="70" as="geometry" />
        </mxCell>
        <mxCell id="eqELyGwQ0gQcfWrksQhf-21" style="edgeStyle=orthogonalEdgeStyle;rounded=0;orthogonalLoop=1;jettySize=auto;html=1;" edge="1" parent="1" source="eqELyGwQ0gQcfWrksQhf-8" target="eqELyGwQ0gQcfWrksQhf-3">
          <mxGeometry relative="1" as="geometry" />
        </mxCell>
        <mxCell id="eqELyGwQ0gQcfWrksQhf-8" value="" style="image;points=[];aspect=fixed;html=1;align=center;shadow=0;dashed=0;image=img/lib/allied_telesis/switch/Switch_24_port_L2.svg;" vertex="1" parent="1">
          <mxGeometry x="-20" y="710" width="74.4" height="51" as="geometry" />
        </mxCell>
        <mxCell id="eqELyGwQ0gQcfWrksQhf-24" style="edgeStyle=orthogonalEdgeStyle;rounded=0;orthogonalLoop=1;jettySize=auto;html=1;entryX=0.5;entryY=1;entryDx=0;entryDy=0;entryPerimeter=0;" edge="1" parent="1" source="eqELyGwQ0gQcfWrksQhf-1" target="eqELyGwQ0gQcfWrksQhf-4">
          <mxGeometry relative="1" as="geometry" />
        </mxCell>
        <mxCell id="eqELyGwQ0gQcfWrksQhf-32" value="10.0.1.12" style="text;html=1;align=center;verticalAlign=middle;whiteSpace=wrap;rounded=0;" vertex="1" parent="1">
          <mxGeometry x="-370" y="-240" width="190" height="60" as="geometry" />
        </mxCell>
      </root>
    </mxGraphModel>
  </diagram>
</mxfile>
